<svg width="412" height="18" viewBox="0 0 412 18" fill="none" xmlns="http://www.w3.org/2000/svg">
<path d="M9.08 1.88V13H7.256V8.136H2.024V13H0.2V1.88H2.024V6.648H7.256V1.88H9.08ZM15.3053 13.144C14.4733 13.144 13.7213 12.9573 13.0493 12.584C12.3773 12.2 11.8493 11.6667 11.4653 10.984C11.0813 10.2907 10.8893 9.49067 10.8893 8.584C10.8893 7.688 11.0866 6.89333 11.4813 6.2C11.8759 5.50667 12.4146 4.97333 13.0973 4.6C13.7799 4.22667 14.5426 4.04 15.3853 4.04C16.2279 4.04 16.9906 4.22667 17.6733 4.6C18.3559 4.97333 18.8946 5.50667 19.2893 6.2C19.6839 6.89333 19.8813 7.688 19.8813 8.584C19.8813 9.48 19.6786 10.2747 19.2733 10.968C18.8679 11.6613 18.3133 12.2 17.6093 12.584C16.9159 12.9573 16.1479 13.144 15.3053 13.144ZM15.3053 11.56C15.7746 11.56 16.2119 11.448 16.6173 11.224C17.0333 11 17.3693 10.664 17.6253 10.216C17.8813 9.768 18.0093 9.224 18.0093 8.584C18.0093 7.944 17.8866 7.40533 17.6413 6.968C17.3959 6.52 17.0706 6.184 16.6653 5.96C16.2599 5.736 15.8226 5.624 15.3533 5.624C14.8839 5.624 14.4466 5.736 14.0413 5.96C13.6466 6.184 13.3319 6.52 13.0973 6.968C12.8626 7.40533 12.7453 7.944 12.7453 8.584C12.7453 9.53333 12.9853 10.2693 13.4653 10.792C13.9559 11.304 14.5693 11.56 15.3053 11.56ZM32.3564 4.04C33.0497 4.04 33.6684 4.184 34.2124 4.472C34.767 4.76 35.199 5.18667 35.5084 5.752C35.8284 6.31733 35.9884 7 35.9884 7.8V13H34.1804V8.072C34.1804 7.28267 33.983 6.68 33.5884 6.264C33.1937 5.83733 32.655 5.624 31.9724 5.624C31.2897 5.624 30.7457 5.83733 30.3404 6.264C29.9457 6.68 29.7484 7.28267 29.7484 8.072V13H27.9404V8.072C27.9404 7.28267 27.743 6.68 27.3484 6.264C26.9537 5.83733 26.415 5.624 25.7324 5.624C25.0497 5.624 24.5057 5.83733 24.1004 6.264C23.7057 6.68 23.5084 7.28267 23.5084 8.072V13H21.6844V4.184H23.5084V5.192C23.807 4.82933 24.1857 4.54667 24.6444 4.344C25.103 4.14133 25.5937 4.04 26.1164 4.04C26.8204 4.04 27.4497 4.18933 28.0044 4.488C28.559 4.78667 28.9857 5.21867 29.2844 5.784C29.551 5.25067 29.967 4.82933 30.5324 4.52C31.0977 4.2 31.7057 4.04 32.3564 4.04ZM46.3894 8.376C46.3894 8.70667 46.368 9.00533 46.3254 9.272H39.5894C39.6427 9.976 39.904 10.5413 40.3734 10.968C40.8427 11.3947 41.4187 11.608 42.1014 11.608C43.0827 11.608 43.776 11.1973 44.1814 10.376H46.1494C45.8827 11.1867 45.3974 11.8533 44.6934 12.376C44 12.888 43.136 13.144 42.1014 13.144C41.2587 13.144 40.5014 12.9573 39.8294 12.584C39.168 12.2 38.6454 11.6667 38.2614 10.984C37.888 10.2907 37.7014 9.49067 37.7014 8.584C37.7014 7.67733 37.8827 6.88267 38.2454 6.2C38.6187 5.50667 39.136 4.97333 39.7974 4.6C40.4694 4.22667 41.2374 4.04 42.1014 4.04C42.9334 4.04 43.6747 4.22133 44.3254 4.584C44.976 4.94667 45.4827 5.45867 45.8454 6.12C46.208 6.77067 46.3894 7.52267 46.3894 8.376ZM44.4854 7.8C44.4747 7.128 44.2347 6.58933 43.7654 6.184C43.296 5.77867 42.7147 5.576 42.0214 5.576C41.392 5.576 40.8534 5.77867 40.4054 6.184C39.9574 6.57867 39.6907 7.11733 39.6054 7.8H44.4854ZM80.9421 13.112C80.1955 13.112 79.5235 12.984 78.9261 12.728C78.3288 12.4613 77.8595 12.088 77.5181 11.608C77.1768 11.128 77.0061 10.568 77.0061 9.928H78.9581C79.0008 10.408 79.1875 10.8027 79.5181 11.112C79.8595 11.4213 80.3341 11.576 80.9421 11.576C81.5715 11.576 82.0621 11.4267 82.4141 11.128C82.7661 10.8187 82.9421 10.424 82.9421 9.944C82.9421 9.57067 82.8301 9.26667 82.6061 9.032C82.3928 8.79733 82.1208 8.616 81.7901 8.488C81.4701 8.36 81.0221 8.22133 80.4461 8.072C79.7208 7.88 79.1288 7.688 78.6701 7.496C78.2221 7.29333 77.8381 6.984 77.5181 6.568C77.1981 6.152 77.0381 5.59733 77.0381 4.904C77.0381 4.264 77.1981 3.704 77.5181 3.224C77.8381 2.744 78.2861 2.376 78.8621 2.12C79.4381 1.864 80.1048 1.736 80.8621 1.736C81.9395 1.736 82.8195 2.008 83.5021 2.552C84.1955 3.08533 84.5795 3.82133 84.6541 4.76H82.6381C82.6061 4.35467 82.4141 4.008 82.0621 3.72C81.7101 3.432 81.2461 3.288 80.6701 3.288C80.1475 3.288 79.7208 3.42133 79.3901 3.688C79.0595 3.95467 78.8941 4.33867 78.8941 4.84C78.8941 5.18133 78.9955 5.464 79.1981 5.688C79.4115 5.90133 79.6781 6.072 79.9981 6.2C80.3181 6.328 80.7555 6.46667 81.3101 6.616C82.0461 6.81867 82.6435 7.02133 83.1021 7.224C83.5715 7.42667 83.9661 7.74133 84.2861 8.168C84.6168 8.584 84.7821 9.144 84.7821 9.848C84.7821 10.4133 84.6275 10.9467 84.3181 11.448C84.0195 11.9493 83.5768 12.3547 82.9901 12.664C82.4141 12.9627 81.7315 13.112 80.9421 13.112ZM90.4224 8.6L94.4864 13H92.0224L88.7584 9.208V13H86.9344V1.16H88.7584V8.04L91.9584 4.184H94.4864L90.4224 8.6ZM96.7218 3.016C96.3911 3.016 96.1138 2.904 95.8898 2.68C95.6658 2.456 95.5538 2.17867 95.5538 1.848C95.5538 1.51733 95.6658 1.24 95.8898 1.016C96.1138 0.791999 96.3911 0.679999 96.7218 0.679999C97.0418 0.679999 97.3138 0.791999 97.5378 1.016C97.7618 1.24 97.8738 1.51733 97.8738 1.848C97.8738 2.17867 97.7618 2.456 97.5378 2.68C97.3138 2.904 97.0418 3.016 96.7218 3.016ZM97.6178 4.184V13H95.7938V4.184H97.6178ZM101.837 1.16V13H100.013V1.16H101.837ZM106.055 1.16V13H104.231V1.16H106.055ZM111.65 13.144C110.957 13.144 110.333 13.0213 109.778 12.776C109.234 12.52 108.802 12.1787 108.482 11.752C108.162 11.3147 107.991 10.8293 107.97 10.296H109.858C109.89 10.6693 110.066 10.984 110.386 11.24C110.717 11.4853 111.127 11.608 111.618 11.608C112.13 11.608 112.525 11.512 112.802 11.32C113.09 11.1173 113.234 10.8613 113.234 10.552C113.234 10.2213 113.074 9.976 112.754 9.816C112.445 9.656 111.949 9.48 111.266 9.288C110.605 9.10667 110.066 8.93067 109.65 8.76C109.234 8.58933 108.871 8.328 108.562 7.976C108.263 7.624 108.114 7.16 108.114 6.584C108.114 6.11467 108.253 5.688 108.53 5.304C108.807 4.90933 109.202 4.6 109.714 4.376C110.237 4.152 110.834 4.04 111.506 4.04C112.509 4.04 113.314 4.296 113.922 4.808C114.541 5.30933 114.871 5.99733 114.914 6.872H113.09C113.058 6.47733 112.898 6.16267 112.61 5.928C112.322 5.69333 111.933 5.576 111.442 5.576C110.962 5.576 110.594 5.66667 110.338 5.848C110.082 6.02933 109.954 6.26933 109.954 6.568C109.954 6.80267 110.039 7 110.21 7.16C110.381 7.32 110.589 7.448 110.834 7.544C111.079 7.62933 111.442 7.74133 111.922 7.88C112.562 8.05067 113.085 8.22667 113.49 8.408C113.906 8.57867 114.263 8.83467 114.562 9.176C114.861 9.51733 115.015 9.97067 115.026 10.536C115.026 11.0373 114.887 11.4853 114.61 11.88C114.333 12.2747 113.938 12.584 113.426 12.808C112.925 13.032 112.333 13.144 111.65 13.144ZM148.638 10.728H143.982L143.182 13H141.278L145.262 1.864H147.374L151.358 13H149.438L148.638 10.728ZM148.126 9.24L146.318 4.072L144.494 9.24H148.126ZM154.915 5.496C155.224 5.06933 155.645 4.72267 156.179 4.456C156.723 4.17867 157.325 4.04 157.987 4.04C158.765 4.04 159.469 4.22667 160.099 4.6C160.728 4.97333 161.224 5.50667 161.587 6.2C161.949 6.88267 162.131 7.66667 162.131 8.552C162.131 9.43733 161.949 10.232 161.587 10.936C161.224 11.6293 160.723 12.1733 160.083 12.568C159.453 12.952 158.755 13.144 157.987 13.144C157.304 13.144 156.696 13.0107 156.163 12.744C155.64 12.4773 155.224 12.136 154.915 11.72V13H153.091V1.16H154.915V5.496ZM160.275 8.552C160.275 7.944 160.147 7.42133 159.891 6.984C159.645 6.536 159.315 6.2 158.899 5.976C158.493 5.74133 158.056 5.624 157.587 5.624C157.128 5.624 156.691 5.74133 156.275 5.976C155.869 6.21067 155.539 6.552 155.283 7C155.037 7.448 154.915 7.976 154.915 8.584C154.915 9.192 155.037 9.72533 155.283 10.184C155.539 10.632 155.869 10.9733 156.275 11.208C156.691 11.4427 157.128 11.56 157.587 11.56C158.056 11.56 158.493 11.4427 158.899 11.208C159.315 10.9627 159.645 10.6107 159.891 10.152C160.147 9.69333 160.275 9.16 160.275 8.552ZM167.758 13.144C166.926 13.144 166.174 12.9573 165.502 12.584C164.83 12.2 164.302 11.6667 163.918 10.984C163.534 10.2907 163.342 9.49067 163.342 8.584C163.342 7.688 163.54 6.89333 163.934 6.2C164.329 5.50667 164.868 4.97333 165.55 4.6C166.233 4.22667 166.996 4.04 167.838 4.04C168.681 4.04 169.444 4.22667 170.126 4.6C170.809 4.97333 171.348 5.50667 171.742 6.2C172.137 6.89333 172.334 7.688 172.334 8.584C172.334 9.48 172.132 10.2747 171.726 10.968C171.321 11.6613 170.766 12.2 170.062 12.584C169.369 12.9573 168.601 13.144 167.758 13.144ZM167.758 11.56C168.228 11.56 168.665 11.448 169.07 11.224C169.486 11 169.822 10.664 170.078 10.216C170.334 9.768 170.462 9.224 170.462 8.584C170.462 7.944 170.34 7.40533 170.094 6.968C169.849 6.52 169.524 6.184 169.118 5.96C168.713 5.736 168.276 5.624 167.806 5.624C167.337 5.624 166.9 5.736 166.494 5.96C166.1 6.184 165.785 6.52 165.55 6.968C165.316 7.40533 165.198 7.944 165.198 8.584C165.198 9.53333 165.438 10.2693 165.918 10.792C166.409 11.304 167.022 11.56 167.758 11.56ZM182.122 4.184V13H180.298V11.96C180.01 12.3227 179.631 12.6107 179.162 12.824C178.703 13.0267 178.212 13.128 177.69 13.128C176.996 13.128 176.372 12.984 175.818 12.696C175.274 12.408 174.842 11.9813 174.522 11.416C174.212 10.8507 174.058 10.168 174.058 9.368V4.184H175.866V9.096C175.866 9.88533 176.063 10.4933 176.458 10.92C176.852 11.336 177.391 11.544 178.074 11.544C178.756 11.544 179.295 11.336 179.69 10.92C180.095 10.4933 180.298 9.88533 180.298 9.096V4.184H182.122ZM186.656 5.672V10.552C186.656 10.8827 186.731 11.1227 186.88 11.272C187.04 11.4107 187.307 11.48 187.68 11.48H188.8V13H187.36C186.539 13 185.909 12.808 185.472 12.424C185.035 12.04 184.816 11.416 184.816 10.552V5.672H183.776V4.184H184.816V1.992H186.656V4.184H188.8V5.672H186.656ZM196.446 1.88V8.968C196.446 9.81067 196.664 10.4453 197.102 10.872C197.55 11.2987 198.168 11.512 198.958 11.512C199.758 11.512 200.376 11.2987 200.814 10.872C201.262 10.4453 201.486 9.81067 201.486 8.968V1.88H203.31V8.936C203.31 9.84267 203.112 10.6107 202.718 11.24C202.323 11.8693 201.795 12.3387 201.134 12.648C200.472 12.9573 199.742 13.112 198.942 13.112C198.142 13.112 197.411 12.9573 196.75 12.648C196.099 12.3387 195.582 11.8693 195.198 11.24C194.814 10.6107 194.622 9.84267 194.622 8.936V1.88H196.446ZM208.884 13.144C208.191 13.144 207.567 13.0213 207.012 12.776C206.468 12.52 206.036 12.1787 205.716 11.752C205.396 11.3147 205.226 10.8293 205.204 10.296H207.092C207.124 10.6693 207.3 10.984 207.62 11.24C207.951 11.4853 208.362 11.608 208.852 11.608C209.364 11.608 209.759 11.512 210.036 11.32C210.324 11.1173 210.468 10.8613 210.468 10.552C210.468 10.2213 210.308 9.976 209.988 9.816C209.679 9.656 209.183 9.48 208.5 9.288C207.839 9.10667 207.3 8.93067 206.884 8.76C206.468 8.58933 206.106 8.328 205.796 7.976C205.498 7.624 205.348 7.16 205.348 6.584C205.348 6.11467 205.487 5.688 205.764 5.304C206.042 4.90933 206.436 4.6 206.948 4.376C207.471 4.152 208.068 4.04 208.74 4.04C209.743 4.04 210.548 4.296 211.156 4.808C211.775 5.30933 212.106 5.99733 212.148 6.872H210.324C210.292 6.47733 210.132 6.16267 209.844 5.928C209.556 5.69333 209.167 5.576 208.676 5.576C208.196 5.576 207.828 5.66667 207.572 5.848C207.316 6.02933 207.188 6.26933 207.188 6.568C207.188 6.80267 207.274 7 207.444 7.16C207.615 7.32 207.823 7.448 208.068 7.544C208.314 7.62933 208.676 7.74133 209.156 7.88C209.796 8.05067 210.319 8.22667 210.724 8.408C211.14 8.57867 211.498 8.83467 211.796 9.176C212.095 9.51733 212.25 9.97067 212.26 10.536C212.26 11.0373 212.122 11.4853 211.844 11.88C211.567 12.2747 211.172 12.584 210.66 12.808C210.159 13.032 209.567 13.144 208.884 13.144ZM267.726 5.192C267.726 5.75733 267.593 6.29067 267.326 6.792C267.059 7.29333 266.633 7.704 266.046 8.024C265.459 8.33333 264.707 8.488 263.79 8.488H261.774V13H259.95V1.88H263.79C264.643 1.88 265.363 2.02933 265.95 2.328C266.547 2.616 266.99 3.01067 267.278 3.512C267.577 4.01333 267.726 4.57333 267.726 5.192ZM263.79 7C264.483 7 265.001 6.84533 265.342 6.536C265.683 6.216 265.854 5.768 265.854 5.192C265.854 3.976 265.166 3.368 263.79 3.368H261.774V7H263.79ZM271.29 5.464C271.556 5.016 271.908 4.66933 272.346 4.424C272.794 4.168 273.322 4.04 273.93 4.04V5.928H273.466C272.751 5.928 272.207 6.10933 271.834 6.472C271.471 6.83467 271.29 7.464 271.29 8.36V13H269.466V4.184H271.29V5.464ZM276.534 3.016C276.204 3.016 275.926 2.904 275.702 2.68C275.478 2.456 275.366 2.17867 275.366 1.848C275.366 1.51733 275.478 1.24 275.702 1.016C275.926 0.791999 276.204 0.679999 276.534 0.679999C276.854 0.679999 277.126 0.791999 277.35 1.016C277.574 1.24 277.686 1.51733 277.686 1.848C277.686 2.17867 277.574 2.456 277.35 2.68C277.126 2.904 276.854 3.016 276.534 3.016ZM277.43 4.184V13H275.606V4.184H277.43ZM279.217 8.584C279.217 7.67733 279.398 6.88267 279.761 6.2C280.134 5.50667 280.646 4.97333 281.297 4.6C281.948 4.22667 282.694 4.04 283.537 4.04C284.604 4.04 285.484 4.296 286.177 4.808C286.881 5.30933 287.356 6.02933 287.601 6.968H285.633C285.473 6.53067 285.217 6.18933 284.865 5.944C284.513 5.69867 284.07 5.576 283.537 5.576C282.79 5.576 282.193 5.84267 281.745 6.376C281.308 6.89867 281.089 7.63467 281.089 8.584C281.089 9.53333 281.308 10.2747 281.745 10.808C282.193 11.3413 282.79 11.608 283.537 11.608C284.593 11.608 285.292 11.144 285.633 10.216H287.601C287.345 11.112 286.865 11.8267 286.161 12.36C285.457 12.8827 284.582 13.144 283.537 13.144C282.694 13.144 281.948 12.9573 281.297 12.584C280.646 12.2 280.134 11.6667 279.761 10.984C279.398 10.2907 279.217 9.49067 279.217 8.584ZM290.347 3.016C290.016 3.016 289.739 2.904 289.515 2.68C289.291 2.456 289.179 2.17867 289.179 1.848C289.179 1.51733 289.291 1.24 289.515 1.016C289.739 0.791999 290.016 0.679999 290.347 0.679999C290.667 0.679999 290.939 0.791999 291.163 1.016C291.387 1.24 291.499 1.51733 291.499 1.848C291.499 2.17867 291.387 2.456 291.163 2.68C290.939 2.904 290.667 3.016 290.347 3.016ZM291.243 4.184V13H289.419V4.184H291.243ZM298.086 4.04C298.779 4.04 299.398 4.184 299.942 4.472C300.496 4.76 300.928 5.18667 301.238 5.752C301.547 6.31733 301.702 7 301.702 7.8V13H299.894V8.072C299.894 7.28267 299.696 6.68 299.302 6.264C298.907 5.83733 298.368 5.624 297.686 5.624C297.003 5.624 296.459 5.83733 296.054 6.264C295.659 6.68 295.462 7.28267 295.462 8.072V13H293.638V4.184H295.462V5.192C295.76 4.82933 296.139 4.54667 296.598 4.344C297.067 4.14133 297.563 4.04 298.086 4.04ZM307.58 4.04C308.263 4.04 308.865 4.17867 309.388 4.456C309.921 4.72267 310.337 5.05867 310.636 5.464V4.184H312.476V13.144C312.476 13.9547 312.305 14.6747 311.964 15.304C311.623 15.944 311.127 16.4453 310.476 16.808C309.836 17.1707 309.068 17.352 308.172 17.352C306.977 17.352 305.985 17.0693 305.196 16.504C304.407 15.9493 303.959 15.192 303.852 14.232H305.66C305.799 14.6907 306.092 15.0587 306.54 15.336C306.999 15.624 307.543 15.768 308.172 15.768C308.908 15.768 309.5 15.544 309.948 15.096C310.407 14.648 310.636 13.9973 310.636 13.144V11.672C310.327 12.088 309.905 12.44 309.372 12.728C308.849 13.0053 308.252 13.144 307.58 13.144C306.812 13.144 306.108 12.952 305.468 12.568C304.839 12.1733 304.337 11.6293 303.964 10.936C303.601 10.232 303.42 9.43733 303.42 8.552C303.42 7.66667 303.601 6.88267 303.964 6.2C304.337 5.51733 304.839 4.98933 305.468 4.616C306.108 4.232 306.812 4.04 307.58 4.04ZM310.636 8.584C310.636 7.976 310.508 7.448 310.252 7C310.007 6.552 309.681 6.21067 309.276 5.976C308.871 5.74133 308.433 5.624 307.964 5.624C307.495 5.624 307.057 5.74133 306.652 5.976C306.247 6.2 305.916 6.536 305.66 6.984C305.415 7.42133 305.292 7.944 305.292 8.552C305.292 9.16 305.415 9.69333 305.66 10.152C305.916 10.6107 306.247 10.9627 306.652 11.208C307.068 11.4427 307.505 11.56 307.964 11.56C308.433 11.56 308.871 11.4427 309.276 11.208C309.681 10.9733 310.007 10.632 310.252 10.184C310.508 9.72533 310.636 9.192 310.636 8.584ZM339.201 7.416C339.201 6.328 339.452 5.352 339.953 4.488C340.465 3.624 341.153 2.952 342.017 2.472C342.892 1.98133 343.847 1.736 344.881 1.736C346.065 1.736 347.116 2.02933 348.033 2.616C348.961 3.192 349.633 4.01333 350.049 5.08H347.857C347.569 4.49333 347.169 4.056 346.657 3.768C346.145 3.48 345.553 3.336 344.881 3.336C344.145 3.336 343.489 3.50133 342.913 3.832C342.337 4.16267 341.884 4.63733 341.553 5.256C341.233 5.87467 341.073 6.59467 341.073 7.416C341.073 8.23733 341.233 8.95733 341.553 9.576C341.884 10.1947 342.337 10.6747 342.913 11.016C343.489 11.3467 344.145 11.512 344.881 11.512C345.553 11.512 346.145 11.368 346.657 11.08C347.169 10.792 347.569 10.3547 347.857 9.768H350.049C349.633 10.8347 348.961 11.656 348.033 12.232C347.116 12.808 346.065 13.096 344.881 13.096C343.836 13.096 342.881 12.856 342.017 12.376C341.153 11.8853 340.465 11.208 339.953 10.344C339.452 9.48 339.201 8.504 339.201 7.416ZM356.008 13.144C355.176 13.144 354.424 12.9573 353.752 12.584C353.08 12.2 352.552 11.6667 352.168 10.984C351.784 10.2907 351.592 9.49067 351.592 8.584C351.592 7.688 351.79 6.89333 352.184 6.2C352.579 5.50667 353.118 4.97333 353.8 4.6C354.483 4.22667 355.246 4.04 356.088 4.04C356.931 4.04 357.694 4.22667 358.376 4.6C359.059 4.97333 359.598 5.50667 359.992 6.2C360.387 6.89333 360.584 7.688 360.584 8.584C360.584 9.48 360.382 10.2747 359.976 10.968C359.571 11.6613 359.016 12.2 358.312 12.584C357.619 12.9573 356.851 13.144 356.008 13.144ZM356.008 11.56C356.478 11.56 356.915 11.448 357.32 11.224C357.736 11 358.072 10.664 358.328 10.216C358.584 9.768 358.712 9.224 358.712 8.584C358.712 7.944 358.59 7.40533 358.344 6.968C358.099 6.52 357.774 6.184 357.368 5.96C356.963 5.736 356.526 5.624 356.056 5.624C355.587 5.624 355.15 5.736 354.744 5.96C354.35 6.184 354.035 6.52 353.8 6.968C353.566 7.40533 353.448 7.944 353.448 8.584C353.448 9.53333 353.688 10.2693 354.168 10.792C354.659 11.304 355.272 11.56 356.008 11.56ZM366.836 4.04C367.529 4.04 368.148 4.184 368.692 4.472C369.246 4.76 369.678 5.18667 369.988 5.752C370.297 6.31733 370.452 7 370.452 7.8V13H368.644V8.072C368.644 7.28267 368.446 6.68 368.052 6.264C367.657 5.83733 367.118 5.624 366.436 5.624C365.753 5.624 365.209 5.83733 364.804 6.264C364.409 6.68 364.212 7.28267 364.212 8.072V13H362.388V4.184H364.212V5.192C364.51 4.82933 364.889 4.54667 365.348 4.344C365.817 4.14133 366.313 4.04 366.836 4.04ZM374.906 5.672V10.552C374.906 10.8827 374.981 11.1227 375.13 11.272C375.29 11.4107 375.557 11.48 375.93 11.48H377.05V13H375.61C374.789 13 374.159 12.808 373.722 12.424C373.285 12.04 373.066 11.416 373.066 10.552V5.672H372.026V4.184H373.066V1.992H374.906V4.184H377.05V5.672H374.906ZM378.123 8.552C378.123 7.66667 378.305 6.88267 378.667 6.2C379.041 5.51733 379.542 4.98933 380.171 4.616C380.811 4.232 381.515 4.04 382.283 4.04C382.977 4.04 383.579 4.17867 384.091 4.456C384.614 4.72267 385.03 5.05867 385.339 5.464V4.184H387.179V13H385.339V11.688C385.03 12.104 384.609 12.4507 384.075 12.728C383.542 13.0053 382.934 13.144 382.251 13.144C381.494 13.144 380.801 12.952 380.171 12.568C379.542 12.1733 379.041 11.6293 378.667 10.936C378.305 10.232 378.123 9.43733 378.123 8.552ZM385.339 8.584C385.339 7.976 385.211 7.448 384.955 7C384.71 6.552 384.385 6.21067 383.979 5.976C383.574 5.74133 383.137 5.624 382.667 5.624C382.198 5.624 381.761 5.74133 381.355 5.976C380.95 6.2 380.619 6.536 380.363 6.984C380.118 7.42133 379.995 7.944 379.995 8.552C379.995 9.16 380.118 9.69333 380.363 10.152C380.619 10.6107 380.95 10.9627 381.355 11.208C381.771 11.4427 382.209 11.56 382.667 11.56C383.137 11.56 383.574 11.4427 383.979 11.208C384.385 10.9733 384.71 10.632 384.955 10.184C385.211 9.72533 385.339 9.192 385.339 8.584ZM388.967 8.584C388.967 7.67733 389.148 6.88267 389.511 6.2C389.884 5.50667 390.396 4.97333 391.047 4.6C391.698 4.22667 392.444 4.04 393.287 4.04C394.354 4.04 395.234 4.296 395.927 4.808C396.631 5.30933 397.106 6.02933 397.351 6.968H395.383C395.223 6.53067 394.967 6.18933 394.615 5.944C394.263 5.69867 393.82 5.576 393.287 5.576C392.54 5.576 391.943 5.84267 391.495 6.376C391.058 6.89867 390.839 7.63467 390.839 8.584C390.839 9.53333 391.058 10.2747 391.495 10.808C391.943 11.3413 392.54 11.608 393.287 11.608C394.343 11.608 395.042 11.144 395.383 10.216H397.351C397.095 11.112 396.615 11.8267 395.911 12.36C395.207 12.8827 394.332 13.144 393.287 13.144C392.444 13.144 391.698 12.9573 391.047 12.584C390.396 12.2 389.884 11.6667 389.511 10.984C389.148 10.2907 388.967 9.49067 388.967 8.584ZM401.297 5.672V10.552C401.297 10.8827 401.371 11.1227 401.521 11.272C401.681 11.4107 401.947 11.48 402.321 11.48H403.441V13H402.001C401.179 13 400.55 12.808 400.113 12.424C399.675 12.04 399.457 11.416 399.457 10.552V5.672H398.417V4.184H399.457V1.992H401.297V4.184H403.441V5.672H401.297ZM408.322 13.144C407.629 13.144 407.005 13.0213 406.45 12.776C405.906 12.52 405.474 12.1787 405.154 11.752C404.834 11.3147 404.663 10.8293 404.642 10.296H406.53C406.562 10.6693 406.738 10.984 407.058 11.24C407.389 11.4853 407.799 11.608 408.29 11.608C408.802 11.608 409.197 11.512 409.474 11.32C409.762 11.1173 409.906 10.8613 409.906 10.552C409.906 10.2213 409.746 9.976 409.426 9.816C409.117 9.656 408.621 9.48 407.938 9.288C407.277 9.10667 406.738 8.93067 406.322 8.76C405.906 8.58933 405.543 8.328 405.234 7.976C404.935 7.624 404.786 7.16 404.786 6.584C404.786 6.11467 404.925 5.688 405.202 5.304C405.479 4.90933 405.874 4.6 406.386 4.376C406.909 4.152 407.506 4.04 408.178 4.04C409.181 4.04 409.986 4.296 410.594 4.808C411.213 5.30933 411.543 5.99733 411.586 6.872H409.762C409.73 6.47733 409.57 6.16267 409.282 5.928C408.994 5.69333 408.605 5.576 408.114 5.576C407.634 5.576 407.266 5.66667 407.01 5.848C406.754 6.02933 406.626 6.26933 406.626 6.568C406.626 6.80267 406.711 7 406.882 7.16C407.053 7.32 407.261 7.448 407.506 7.544C407.751 7.62933 408.114 7.74133 408.594 7.88C409.234 8.05067 409.757 8.22667 410.162 8.408C410.578 8.57867 410.935 8.83467 411.234 9.176C411.533 9.51733 411.687 9.97067 411.698 10.536C411.698 11.0373 411.559 11.4853 411.282 11.88C411.005 12.2747 410.61 12.584 410.098 12.808C409.597 13.032 409.005 13.144 408.322 13.144Z" fill="#263238"/>
</svg>
